<svg width="50" height="50" viewBox="0 0 50 50" fill="none" xmlns="http://www.w3.org/2000/svg">
<path fill-rule="evenodd" clip-rule="evenodd" d="M25.0007 2.0835C12.3444 2.0835 2.08398 12.3439 2.08398 25.0002C2.08398 37.6564 12.3444 47.9168 25.0007 47.9168C37.6569 47.9168 47.9173 37.6564 47.9173 25.0002C47.9173 12.3439 37.6569 2.0835 25.0007 2.0835ZM34.934 21.1252C35.1169 20.9161 35.2561 20.6725 35.3435 20.4088C35.4309 20.1452 35.4647 19.8667 35.4429 19.5897C35.4211 19.3128 35.3441 19.043 35.2164 18.7963C35.0888 18.5495 34.9131 18.3308 34.6997 18.153C34.4863 17.9751 34.2395 17.8418 33.9738 17.7607C33.7081 17.6797 33.4288 17.6526 33.1525 17.6811C32.8762 17.7095 32.6083 17.793 32.3647 17.9265C32.1211 18.06 31.9067 18.2409 31.734 18.4585L22.7757 29.2064L18.1402 24.5689C17.7473 24.1894 17.2211 23.9794 16.6748 23.9842C16.1286 23.9889 15.606 24.208 15.2198 24.5943C14.8335 24.9806 14.6144 25.5031 14.6097 26.0493C14.6049 26.5956 14.8149 27.1218 15.1944 27.5148L21.4444 33.7648C21.6491 33.9693 21.8942 34.129 22.164 34.2336C22.4339 34.3382 22.7225 34.3855 23.0116 34.3724C23.3007 34.3592 23.5839 34.286 23.8432 34.1574C24.1024 34.0287 24.332 33.8475 24.5173 33.6252L34.934 21.1252Z" fill="#8AA1A6"/>
</svg>
