<svg width="163" height="99" viewBox="0 0 163 99" fill="none" xmlns="http://www.w3.org/2000/svg">
<mask id="mask0_21_8588" style="mask-type:alpha" maskUnits="userSpaceOnUse" x="39" y="33" width="87" height="33">
<path d="M62.9062 63.9375C70.3103 63.9375 76.3125 57.9353 76.3125 50.5312C76.3125 43.1272 70.3103 37.125 62.9062 37.125C55.5022 37.125 49.5 43.1272 49.5 50.5312C49.5 57.9353 55.5022 63.9375 62.9062 63.9375Z" fill="#555555" stroke="white" stroke-width="4" stroke-linecap="round" stroke-linejoin="round"/>
<path d="M102.094 63.9375C94.6897 63.9375 88.6875 57.9353 88.6875 50.5312C88.6875 43.1272 94.6897 37.125 102.094 37.125C109.498 37.125 115.5 43.1272 115.5 50.5312C115.5 57.9353 109.498 63.9375 102.094 63.9375Z" fill="#555555" stroke="white" stroke-width="4" stroke-linecap="round" stroke-linejoin="round"/>
<path d="M74.25 43.3125C75.2812 39.1875 78.375 35.0625 82.5 35.0625C86.625 35.0625 89.7188 39.1875 90.75 43.3125M41.25 49.5H49.5H41.25ZM123.75 49.5H115.5H123.75Z" stroke="white" stroke-width="4" stroke-linecap="round" stroke-linejoin="round"/>
</mask>
<g mask="url(#mask0_21_8588)">
<path d="M33 0H132V99H33V0Z" fill="#8AA1A6"/>
</g>
<path d="M24.96 69.512C21.9307 69.512 19.328 68.872 17.152 67.592C14.976 66.312 13.312 64.3707 12.16 61.768C11.008 59.1227 10.432 55.7947 10.432 51.784C10.432 47.7307 11.0293 44.4027 12.224 41.8C13.4613 39.1973 15.168 37.256 17.344 35.976C19.52 34.696 22.0587 34.056 24.96 34.056C28.2027 34.056 31.104 34.7813 33.664 36.232C36.2667 37.6827 38.3147 39.7307 39.808 42.376C41.344 45.0213 42.112 48.1573 42.112 51.784C42.112 55.368 41.344 58.4827 39.808 61.128C38.3147 63.7733 36.2667 65.8427 33.664 67.336C31.104 68.7867 28.2027 69.512 24.96 69.512ZM4.608 69V21.512H14.592V41.544L13.952 51.72L14.144 61.96V69H4.608ZM23.232 61.32C24.896 61.32 26.368 60.936 27.648 60.168C28.9707 59.4 30.016 58.312 30.784 56.904C31.5947 55.4533 32 53.7467 32 51.784C32 49.7787 31.5947 48.072 30.784 46.664C30.016 45.256 28.9707 44.168 27.648 43.4C26.368 42.632 24.896 42.248 23.232 42.248C21.568 42.248 20.0747 42.632 18.752 43.4C17.4293 44.168 16.384 45.256 15.616 46.664C14.848 48.072 14.464 49.7787 14.464 51.784C14.464 53.7467 14.848 55.4533 15.616 56.904C16.384 58.312 17.4293 59.4 18.752 60.168C20.0747 60.936 21.568 61.32 23.232 61.32Z" fill="#8AA1A6"/>
<path d="M132.864 61.96L133.12 49.8L149.184 34.568H161.088L145.664 50.248L140.48 54.472L132.864 61.96ZM124.608 69V21.512H134.592V69H124.608ZM150.272 69L138.624 54.536L144.896 46.792L162.368 69H150.272Z" fill="#8AA1A6"/>
</svg>
