<svg width="50" height="50" viewBox="0 0 50 50" fill="none" xmlns="http://www.w3.org/2000/svg">
<path d="M26.4789 4.77103C26.2852 4.57576 26.0548 4.42078 25.8009 4.31501C25.547 4.20924 25.2747 4.15479 24.9997 4.15479C24.7247 4.15479 24.4524 4.20924 24.1985 4.31501C23.9446 4.42078 23.7142 4.57576 23.5205 4.77103L4.77054 23.521C4.57528 23.7147 4.42029 23.9451 4.31452 24.199C4.20875 24.4529 4.1543 24.7252 4.1543 25.0002C4.1543 25.2752 4.20875 25.5475 4.31452 25.8014C4.42029 26.0553 4.57528 26.2857 4.77054 26.4794C4.96521 26.6725 5.19608 26.8252 5.4499 26.9289C5.70373 27.0326 5.97553 27.0851 6.24971 27.0835H8.33304V41.6669C8.33304 42.7719 8.77203 43.8317 9.55343 44.6131C10.3348 45.3945 11.3946 45.8335 12.4997 45.8335H37.4997C38.6048 45.8335 39.6646 45.3945 40.446 44.6131C41.2274 43.8317 41.6664 42.7719 41.6664 41.6669V27.0835H43.7497C44.3022 27.0835 44.8321 26.864 45.2229 26.4733C45.6135 26.0826 45.833 25.5527 45.833 25.0002C45.8346 24.726 45.7821 24.4542 45.6784 24.2004C45.5747 23.9466 45.422 23.7157 45.2289 23.521L26.4789 4.77103ZM12.4997 41.6669V21.6877L24.9997 9.1877L37.4997 21.6877V41.6669H12.4997Z" fill="black"/>
</svg>
