<svg width="55" height="55" viewBox="0 0 55 55" fill="none" xmlns="http://www.w3.org/2000/svg">
<path d="M49.7793 42.1308L47.9961 35.4922L40.8848 8.916C40.6734 8.14603 40.1667 7.49063 39.4747 7.09232C38.7827 6.69402 37.9614 6.58503 37.1895 6.78905L30.5508 8.57225C30.3849 8.61425 30.2258 8.67934 30.0781 8.76561C29.8111 8.32026 29.4332 7.95163 28.9815 7.69562C28.5297 7.4396 28.0193 7.30492 27.5 7.30467H20.625C20.0103 7.30119 19.4096 7.48888 18.9062 7.84178C18.4029 7.48888 17.8022 7.30119 17.1875 7.30467H10.3125C9.51478 7.30467 8.74973 7.62156 8.18566 8.18564C7.62158 8.74971 7.30469 9.51476 7.30469 10.3125V44.6875C7.30469 45.4852 7.62158 46.2503 8.18566 46.8143C8.74973 47.3784 9.51478 47.6953 10.3125 47.6953H17.1875C17.8022 47.6988 18.4029 47.5111 18.9062 47.1582C19.4096 47.5111 20.0103 47.6988 20.625 47.6953H27.5C28.2977 47.6953 29.0628 47.3784 29.6268 46.8143C30.1909 46.2503 30.5078 45.4852 30.5078 44.6875V20.0234L37.3184 45.4609C37.4928 46.1023 37.8733 46.6686 38.4013 47.0723C38.9294 47.4761 39.5755 47.695 40.2402 47.6953C40.5015 47.6912 40.7612 47.6551 41.0137 47.5879L47.6523 45.8047C48.4207 45.5981 49.0759 45.0956 49.4745 44.407C49.8732 43.7185 49.9827 42.9 49.7793 42.1308ZM33.0215 19.4863L40.498 17.4883L45.1816 34.9121L37.7051 36.9101L33.0215 19.4863ZM30.959 11.2793C31.0141 11.1772 31.1064 11.1002 31.2168 11.0644L37.8555 9.28123H37.9629C38.0562 9.28334 38.1468 9.31303 38.2233 9.36655C38.2997 9.42008 38.3587 9.49505 38.3926 9.58201L39.832 14.9961L32.3555 16.9941L30.916 11.6015C30.8898 11.4925 30.9051 11.3776 30.959 11.2793ZM20.625 9.8828H27.5C27.614 9.8828 27.7233 9.92807 27.8038 10.0086C27.8844 10.0892 27.9297 10.1985 27.9297 10.3125V36.5234H20.1953V10.3125C20.1953 10.1985 20.2406 10.0892 20.3212 10.0086C20.4017 9.92807 20.511 9.8828 20.625 9.8828ZM10.3125 9.8828H17.1875C17.3015 9.8828 17.4108 9.92807 17.4913 10.0086C17.5719 10.0892 17.6172 10.1985 17.6172 10.3125V15.8984H9.88281V10.3125C9.88281 10.1985 9.92808 10.0892 10.0087 10.0086C10.0892 9.92807 10.1985 9.8828 10.3125 9.8828ZM17.1875 45.1172H10.3125C10.1985 45.1172 10.0892 45.0719 10.0087 44.9913C9.92808 44.9107 9.88281 44.8014 9.88281 44.6875V18.4765H17.6172V44.6875C17.6172 44.8014 17.5719 44.9107 17.4913 44.9913C17.4108 45.0719 17.3015 45.1172 17.1875 45.1172ZM27.5 45.1172H20.625C20.511 45.1172 20.4017 45.0719 20.3212 44.9913C20.2406 44.9107 20.1953 44.8014 20.1953 44.6875V39.1015H27.9297V44.6875C27.9297 44.8014 27.8844 44.9107 27.8038 44.9913C27.7233 45.0719 27.614 45.1172 27.5 45.1172ZM46.9863 43.3125L40.3477 45.0957C40.2926 45.112 40.2349 45.1171 40.1779 45.1107C40.1209 45.1044 40.0657 45.0866 40.0156 45.0586C39.9656 45.0306 39.9216 44.9928 39.8864 44.9475C39.8512 44.9022 39.8254 44.8503 39.8105 44.7949L38.3711 39.4023L45.8477 37.4043L47.2871 42.7969C47.3032 42.8505 47.3081 42.9068 47.3015 42.9624C47.2949 43.018 47.277 43.0717 47.2488 43.12C47.2206 43.1684 47.1827 43.2104 47.1376 43.2436C47.0924 43.2767 47.0409 43.3001 46.9863 43.3125Z" fill="black"/>
</svg>
