<svg width="50" height="50" viewBox="0 0 50 50" fill="none" xmlns="http://www.w3.org/2000/svg">
<path d="M13.8887 7.22217H38.8887V9.37495H13.8887V7.22217Z" fill="#8AA1A6"/>
<path d="M39.9545 11.3333H13.3712C13.0167 11.3283 12.667 11.2516 12.343 11.1077C12.0191 10.9638 11.7276 10.7558 11.4862 10.4963C11.2448 10.2367 11.0584 9.9309 10.9384 9.59736C10.8184 9.26382 10.7672 8.90943 10.7879 8.55556C10.7861 7.85133 11.0519 7.17273 11.5315 6.65704C12.0111 6.14135 12.6687 5.82707 13.3712 5.77778H39.9545C40.3229 5.77778 40.6761 5.63145 40.9366 5.37098C41.1971 5.11051 41.3434 4.75725 41.3434 4.38889C41.3434 4.02053 41.1971 3.66726 40.9366 3.4068C40.6761 3.14633 40.3229 3 39.9545 3H13.3712C11.9317 3.05041 10.5681 3.65791 9.56792 4.69436C8.56775 5.73082 8.00919 7.11521 8.01008 8.55556C7.99664 8.78221 7.99664 9.00946 8.01008 9.23611C7.9967 9.34682 7.9967 9.45874 8.01008 9.56944V41.8889C8.00919 43.3292 8.56775 44.7136 9.56792 45.7501C10.5681 46.7865 11.9317 47.394 13.3712 47.4444H39.9545C40.3229 47.4444 40.6761 47.2981 40.9366 47.0377C41.1971 46.7772 41.3434 46.4239 41.3434 46.0556V12.8194C41.3442 12.4416 41.2011 12.0776 40.9431 11.8015C40.6851 11.5255 40.3316 11.3581 39.9545 11.3333Z" fill="#8AA1A6"/>
</svg>
