<svg width="50" height="50" viewBox="0 0 50 50" fill="none" xmlns="http://www.w3.org/2000/svg">
<path d="M13.8887 7.22217H38.8887V9.37495H13.8887V7.22217Z" fill="#8AA1A6"/>
<path d="M40.2787 11.1112H13.6954C13.341 11.1061 12.9912 11.0294 12.6672 10.8855C12.3433 10.7417 12.0518 10.5337 11.8104 10.2741C11.569 10.0145 11.3827 9.70874 11.2626 9.3752C11.1426 9.04166 11.0914 8.68726 11.1121 8.33339C11.1103 7.62916 11.3762 6.95056 11.8558 6.43487C12.3353 5.91918 12.9929 5.6049 13.6954 5.55561H40.2787C40.6471 5.55561 41.0004 5.40928 41.2608 5.14881C41.5213 4.88835 41.6676 4.53508 41.6676 4.16672C41.6676 3.79836 41.5213 3.4451 41.2608 3.18463C41.0004 2.92416 40.6471 2.77783 40.2787 2.77783H13.6954C12.2559 2.82824 10.8923 3.43574 9.89214 4.4722C8.89196 5.50865 8.33341 6.89304 8.3343 8.33339C8.32086 8.56004 8.32086 8.78729 8.3343 9.01394C8.32091 9.12465 8.32091 9.23657 8.3343 9.34728V41.6667C8.33341 43.1071 8.89196 44.4915 9.89214 45.5279C10.8923 46.5644 12.2559 47.1719 13.6954 47.2223H40.2787C40.6471 47.2223 41.0004 47.0759 41.2608 46.8155C41.5213 46.555 41.6676 46.2017 41.6676 45.8334V12.5973C41.6684 12.2194 41.5253 11.8554 41.2673 11.5794C41.0093 11.3033 40.6558 11.1359 40.2787 11.1112ZM38.8899 44.4445H13.6954C12.9929 44.3952 12.3353 44.0809 11.8558 43.5652C11.3762 43.0495 11.1103 42.3709 11.1121 41.6667V13.2639C11.9018 13.6996 12.7939 13.9154 13.6954 13.8889H38.8899V44.4445Z" fill="#8AA1A6"/>
</svg>
