<svg width="50" height="50" viewBox="0 0 50 50" fill="none" xmlns="http://www.w3.org/2000/svg">
<path d="M20.8343 5.729C23.6886 5.72865 26.4847 6.53711 28.8984 8.0607C31.3121 9.5843 33.2447 11.7607 34.4723 14.3376C35.6998 16.9145 36.172 19.7865 35.8342 22.6208C35.4963 25.4552 34.3623 28.1357 32.5634 30.3519L42.7718 40.5603C43.0521 40.8387 43.2165 41.213 43.2319 41.6078C43.2473 42.0026 43.1126 42.3885 42.8548 42.688C42.5971 42.9875 42.2355 43.1782 41.8428 43.2217C41.4501 43.2653 41.0555 43.1584 40.7384 42.9228L40.5634 42.7707L30.353 32.5623C28.4757 34.0855 26.2602 35.1358 23.8927 35.6249C21.5251 36.1141 19.0748 36.0278 16.7476 35.3733C14.4203 34.7188 12.2842 33.5153 10.5186 31.8638C8.75311 30.2124 7.40978 28.1613 6.60154 25.8829C5.79331 23.6044 5.54378 21.1653 5.87394 18.7704C6.20409 16.3756 7.10428 14.0949 8.49884 12.1202C9.89341 10.1455 11.7416 8.53433 13.8881 7.42218C16.0346 6.31003 18.4168 5.72937 20.8343 5.729ZM20.8343 8.854C19.2611 8.854 17.7034 9.16385 16.25 9.76586C14.7967 10.3679 13.4761 11.2503 12.3637 12.3626C11.2514 13.475 10.369 14.7956 9.76697 16.2489C9.16496 17.7023 8.85511 19.26 8.85511 20.8332C8.85511 22.4063 9.16496 23.964 9.76697 25.4174C10.369 26.8708 11.2514 28.1914 12.3637 29.3037C13.4761 30.4161 14.7967 31.2985 16.25 31.9005C17.7034 32.5025 19.2611 32.8123 20.8343 32.8123C24.0113 32.8123 27.0583 31.5502 29.3048 29.3037C31.5514 27.0572 32.8134 24.0102 32.8134 20.8332C32.8134 17.6561 31.5514 14.6091 29.3048 12.3626C27.0583 10.1161 24.0113 8.854 20.8343 8.854Z" fill="black"/>
</svg>
